<svg width="39" height="39" viewBox="0 0 39 39" fill="none" xmlns="http://www.w3.org/2000/svg">
<path d="M20.3824 25.8863L33.3255 12.3022C33.5416 12.0755 33.6621 11.7744 33.6621 11.4612C33.6621 11.1481 33.5416 10.8469 33.3255 10.6203L33.3109 10.6057C33.2061 10.4954 33.08 10.4076 32.9403 10.3476C32.8005 10.2876 32.6501 10.2567 32.498 10.2567C32.3459 10.2567 32.1954 10.2876 32.0556 10.3476C31.9159 10.4076 31.7898 10.4954 31.6851 10.6057L19.4976 23.3977L7.31494 10.6057C7.21019 10.4954 7.08411 10.4076 6.94436 10.3476C6.80461 10.2876 6.65412 10.2567 6.50203 10.2567C6.34995 10.2567 6.19946 10.2876 6.05971 10.3476C5.91996 10.4076 5.79387 10.4954 5.68913 10.6057L5.6745 10.6203C5.45843 10.8469 5.33789 11.1481 5.33789 11.4612C5.33789 11.7744 5.45843 12.0755 5.6745 12.3022L18.6176 25.8863C18.7315 26.0058 18.8684 26.1009 19.02 26.1659C19.1717 26.2309 19.335 26.2644 19.5 26.2644C19.665 26.2644 19.8283 26.2309 19.98 26.1659C20.1317 26.1009 20.2686 26.0058 20.3824 25.8863Z" fill="white"/>
</svg>
