<svg width="36" height="36" viewBox="0 0 36 36" fill="none" xmlns="http://www.w3.org/2000/svg">
<rect width="36" height="36" rx="18" fill="#3D3D3D"/>
<path d="M11.3262 18.8885C11.39 18.8246 11.4659 18.7739 11.5493 18.7393C11.6328 18.7047 11.7223 18.6869 11.8126 18.6869C11.903 18.6869 11.9924 18.7047 12.0759 18.7393C12.1593 18.7739 12.2352 18.8246 12.299 18.8885L17.3126 23.903V10.4374C17.3126 10.2551 17.385 10.0802 17.514 9.95131C17.6429 9.82238 17.8178 9.74995 18.0001 9.74995C18.1824 9.74995 18.3573 9.82238 18.4862 9.95131C18.6152 10.0802 18.6876 10.2551 18.6876 10.4374V23.903L23.7012 18.8885C23.8302 18.7595 24.0052 18.6871 24.1876 18.6871C24.37 18.6871 24.545 18.7595 24.674 18.8885C24.803 19.0175 24.8755 19.1925 24.8755 19.3749C24.8755 19.5574 24.803 19.7324 24.674 19.8614L18.4865 26.0489C18.4227 26.1128 18.3468 26.1635 18.2634 26.1981C18.1799 26.2327 18.0905 26.2505 18.0001 26.2505C17.9098 26.2505 17.8203 26.2327 17.7368 26.1981C17.6534 26.1635 17.5775 26.1128 17.5137 26.0489L11.3262 19.8614C11.2623 19.7975 11.2116 19.7217 11.177 19.6382C11.1424 19.5548 11.1246 19.4653 11.1246 19.3749C11.1246 19.2846 11.1424 19.1951 11.177 19.1117C11.2116 19.0282 11.2623 18.9524 11.3262 18.8885Z" fill="white"/>
</svg>
