<svg width="25" height="25" viewBox="0 0 25 25" fill="none" xmlns="http://www.w3.org/2000/svg">
<path d="M18.229 10.4166C18.229 12.2916 17.328 13.9583 15.9332 15.003L16.5582 15.8364C17.4008 15.2063 18.0848 14.3883 18.5557 13.4474C19.0266 12.5065 19.2714 11.4687 19.2707 10.4166H18.229ZM12.4998 4.68742C14.0193 4.68742 15.4765 5.29103 16.551 6.36545C17.6254 7.43988 18.229 8.89712 18.229 10.4166H19.2707C19.2707 8.62085 18.5573 6.89866 17.2875 5.62888C16.0178 4.35911 14.2956 3.64575 12.4998 3.64575V4.68742ZM6.77067 10.4166C6.77067 8.89712 7.37428 7.43988 8.44871 6.36545C9.52313 5.29103 10.9804 4.68742 12.4998 4.68742V3.64575C10.7041 3.64575 8.98191 4.35911 7.71214 5.62888C6.44236 6.89866 5.72901 8.62085 5.72901 10.4166H6.77067ZM9.06651 15.003C8.35318 14.4701 7.77416 13.7779 7.37558 12.9816C6.97699 12.1854 6.76986 11.307 6.77067 10.4166H5.72901C5.72827 11.4687 5.9731 12.5065 6.44399 13.4474C6.91489 14.3883 7.59886 15.2063 8.44151 15.8364L9.06651 15.003ZM10.9342 20.576C10.9025 19.0527 10.5877 17.5487 10.0061 16.1405L9.04359 16.5374C9.57484 17.8228 9.86442 19.201 9.89359 20.5978L10.9353 20.577L10.9342 20.576ZM14.13 20.477C13.6239 20.73 13.0657 20.8618 12.4998 20.8618C11.9339 20.8618 11.3758 20.73 10.8696 20.477L10.404 21.4093C11.0548 21.7346 11.7723 21.9039 12.4998 21.9039C13.2274 21.9039 13.9449 21.7346 14.5957 21.4093L14.13 20.477ZM14.9946 16.1405C14.4125 17.549 14.0974 19.0534 14.0655 20.577L15.1071 20.5978C15.1353 19.201 15.4248 17.8239 15.9561 16.5385L14.9936 16.1405H14.9946ZM14.5957 21.4093C14.7466 21.3334 14.8739 21.2177 14.9639 21.0747C15.0539 20.9316 15.103 20.7668 15.1061 20.5978L14.0644 20.577C14.0651 20.5559 14.0716 20.5354 14.0832 20.5178C14.0947 20.5001 14.111 20.486 14.13 20.477L14.5957 21.4093ZM9.89359 20.5978C9.89665 20.7668 9.94581 20.9316 10.0358 21.0747C10.1257 21.2177 10.2531 21.3334 10.404 21.4093L10.8696 20.477C10.8884 20.4861 10.9043 20.5001 10.9157 20.5175C10.927 20.535 10.9335 20.5552 10.9342 20.576L9.89255 20.5978H9.89359ZM8.44151 15.8374C8.77276 16.0853 8.84776 16.1468 8.87901 16.1874L9.70192 15.5489C9.5613 15.3676 9.33421 15.2051 9.06651 15.003L8.44151 15.8364V15.8374ZM10.0061 16.1405C9.91546 15.9218 9.83942 15.727 9.70192 15.5489L8.87901 16.1874C8.91234 16.2312 8.93526 16.276 9.04359 16.5374L10.0061 16.1405ZM15.9332 15.0041C15.6655 15.2041 15.4384 15.3687 15.2978 15.5489L16.1207 16.1874C16.1519 16.1468 16.2259 16.0853 16.5582 15.8364L15.9332 15.003V15.0041ZM15.9561 16.5385C16.0644 16.277 16.0873 16.2312 16.1217 16.1874L15.2988 15.5489C15.1603 15.727 15.0842 15.9218 14.9936 16.1405L15.9561 16.5385Z" fill="#C900DB"/>
<path d="M15.1038 17.1875C13.4321 17.8561 11.5672 17.8561 9.89551 17.1875" stroke="#C900DB" stroke-width="2.66667"/>
<path d="M11.4582 14.5832V10.1561C11.4582 9.43734 10.8748 8.854 10.1561 8.854C9.43734 8.854 8.854 9.43734 8.854 10.1561C8.854 10.8748 9.43734 11.4582 10.1561 11.4582H14.8436C15.5623 11.4582 16.1457 10.8748 16.1457 10.1561C16.1457 9.43734 15.5623 8.854 14.8436 8.854C14.1248 8.854 13.5415 9.43734 13.5415 10.1561V14.5832" stroke="#C900DB" stroke-width="2.66667" stroke-linecap="round"/>
</svg>
