<svg width="36" height="36" viewBox="0 0 36 36" fill="none" xmlns="http://www.w3.org/2000/svg">
<rect width="36" height="36" rx="18" fill="#C900DB"/>
<path d="M23.5 15.7708C23.5 17.6458 22.599 19.3125 21.2042 20.3573L21.8292 21.1906C22.6718 20.5606 23.3558 19.7426 23.8267 18.8017C24.2976 17.8608 24.5424 16.823 24.5417 15.7708H23.5ZM17.7708 10.0417C19.2903 10.0417 20.7475 10.6453 21.822 11.7197C22.8964 12.7941 23.5 14.2514 23.5 15.7708H24.5417C24.5417 13.9751 23.8283 12.2529 22.5585 10.9831C21.2888 9.71335 19.5666 9 17.7708 9V10.0417ZM12.0417 15.7708C12.0417 14.2514 12.6453 12.7941 13.7197 11.7197C14.7941 10.6453 16.2514 10.0417 17.7708 10.0417V9C15.9751 9 14.2529 9.71335 12.9831 10.9831C11.7134 12.2529 11 13.9751 11 15.7708H12.0417ZM14.3375 20.3573C13.6242 19.8243 13.0452 19.1321 12.6466 18.3359C12.248 17.5396 12.0409 16.6613 12.0417 15.7708H11C10.9993 16.823 11.2441 17.8608 11.715 18.8017C12.1859 19.7426 12.8699 20.5606 13.7125 21.1906L14.3375 20.3573ZM16.2052 25.9302C16.1735 24.407 15.8587 22.9029 15.2771 21.4948L14.3146 21.8917C14.8458 23.1771 15.1354 24.5552 15.1646 25.9521L16.2063 25.9313L16.2052 25.9302ZM19.401 25.8313C18.8949 26.0843 18.3367 26.216 17.7708 26.216C17.2049 26.216 16.6468 26.0843 16.1406 25.8313L15.675 26.7635C16.3258 27.0888 17.0433 27.2582 17.7708 27.2582C18.4984 27.2582 19.2159 27.0888 19.8667 26.7635L19.401 25.8313ZM20.2656 21.4948C19.6835 22.9032 19.3684 24.4076 19.3365 25.9313L20.3781 25.9521C20.4063 24.5552 20.6958 23.1781 21.2271 21.8927L20.2646 21.4948H20.2656ZM19.8667 26.7635C20.0176 26.6876 20.1449 26.5719 20.2349 26.4289C20.3249 26.2859 20.374 26.121 20.3771 25.9521L19.3354 25.9313C19.3361 25.9102 19.3426 25.8897 19.3541 25.872C19.3657 25.8544 19.382 25.8403 19.401 25.8313L19.8667 26.7635ZM15.1646 25.9521C15.1676 26.121 15.2168 26.2859 15.3068 26.4289C15.3967 26.5719 15.5241 26.6876 15.675 26.7635L16.1406 25.8313C16.1594 25.8403 16.1753 25.8543 16.1867 25.8718C16.198 25.8892 16.2045 25.9094 16.2052 25.9302L15.1635 25.9521H15.1646ZM13.7125 21.1917C14.0438 21.4396 14.1188 21.501 14.15 21.5417L14.9729 20.9031C14.8323 20.7219 14.6052 20.5594 14.3375 20.3573L13.7125 21.1906V21.1917ZM15.2771 21.4948C15.1865 21.276 15.1104 21.0813 14.9729 20.9031L14.15 21.5417C14.1833 21.5854 14.2063 21.6302 14.3146 21.8917L15.2771 21.4948ZM21.2042 20.3583C20.9365 20.5583 20.7094 20.7229 20.5688 20.9031L21.3917 21.5417C21.4229 21.501 21.4969 21.4396 21.8292 21.1906L21.2042 20.3573V20.3583ZM21.2271 21.8927C21.3354 21.6313 21.3583 21.5854 21.3927 21.5417L20.5698 20.9031C20.4313 21.0813 20.3552 21.276 20.2646 21.4948L21.2271 21.8927Z" fill="white"/>
<path d="M20.3748 22.5415C18.7031 23.2101 16.8382 23.2101 15.1665 22.5415" stroke="white" stroke-width="2.66667"/>
<path d="M16.7292 19.9377V15.5106C16.7292 14.7918 16.1458 14.2085 15.4271 14.2085C14.7083 14.2085 14.125 14.7918 14.125 15.5106C14.125 16.2293 14.7083 16.8127 15.4271 16.8127H20.1146C20.8333 16.8127 21.4167 16.2293 21.4167 15.5106C21.4167 14.7918 20.8333 14.2085 20.1146 14.2085C19.3958 14.2085 18.8125 14.7918 18.8125 15.5106V19.9377" stroke="white" stroke-width="2.66667" stroke-linecap="round"/>
</svg>
